<?xml version="1.0" standalone="no"?>
<!DOCTYPE svg PUBLIC "-//W3C//DTD SVG 20010904//EN"
 "http://www.w3.org/TR/2001/REC-SVG-20010904/DTD/svg10.dtd">
<svg version="1.0" xmlns="http://www.w3.org/2000/svg"
 width="400.000000pt" height="400.000000pt" viewBox="0 0 400.000000 400.000000"
 preserveAspectRatio="xMidYMid meet">
<metadata>
Created by potrace 1.11, written by Peter Selinger 2001-2013
</metadata>
<g transform="translate(0.000000,400.000000) scale(0.100000,-0.100000)"
fill="#000000" stroke="none">
<path d="M1725 3310 c-404 -58 -729 -213 -986 -469 -172 -171 -272 -335 -336
-551 -26 -90 -28 -105 -28 -290 0 -185 2 -200 28 -290 64 -216 164 -380 336
-551 176 -174 378 -299 621 -382 142 -48 211 -65 370 -87 232 -33 520 -20 740
35 312 78 581 225 791 434 172 171 272 335 336 551 26 90 28 105 28 290 0 185
-2 200 -28 290 -64 216 -164 380 -336 551 -318 316 -772 491 -1271 488 -81 -1
-198 -9 -265 -19z m319 -277 c21 -126 41 -231 44 -234 4 -3 45 -11 92 -18 283
-41 540 -196 678 -411 46 -71 88 -172 97 -232 8 -54 4 -52 130 -68 50 -6 151
-20 225 -30 74 -11 165 -22 203 -26 37 -3 67 -10 67 -14 0 -4 -30 -11 -67 -14
-38 -4 -129 -15 -203 -26 -74 -10 -175 -24 -225 -30 -126 -16 -122 -14 -130
-68 -9 -60 -51 -161 -97 -232 -138 -215 -395 -370 -678 -411 -47 -7 -88 -15
-92 -18 -3 -3 -23 -108 -44 -233 -21 -126 -41 -228 -44 -228 -3 0 -23 102 -44
228 -21 125 -41 230 -44 233 -4 3 -45 11 -92 18 -283 41 -540 196 -678 411
-46 71 -88 172 -97 232 -8 54 -4 52 -130 68 -49 6 -151 20 -225 30 -74 11
-165 22 -202 26 -38 3 -68 10 -68 14 0 4 30 11 68 14 37 4 128 15 202 26 74
10 176 24 225 30 126 16 122 14 130 68 9 60 51 161 97 232 138 215 395 370
678 411 47 7 88 15 92 18 3 3 23 108 44 234 21 125 41 227 44 227 3 0 23 -102
44 -227z"/>
<path d="M1825 2619 c-264 -34 -522 -226 -602 -448 l-24 -63 43 6 c24 4 79 11
123 16 115 14 305 39 342 45 38 7 88 46 107 84 18 35 73 340 64 359 -2 4 -25
5 -53 1z"/>
<path d="M2124 2576 c8 -66 36 -231 48 -279 12 -50 61 -104 106 -117 34 -9
161 -27 362 -51 41 -5 94 -11 118 -15 l43 -6 -24 63 c-81 224 -335 412 -606
449 l-53 7 6 -51z"/>
<path d="M1223 1829 c81 -224 335 -412 606 -449 l53 -7 -6 51 c-8 66 -36 231
-48 279 -12 50 -61 104 -106 117 -34 9 -161 27 -362 51 -41 5 -94 11 -118 15
l-43 6 24 -63z"/>
<path d="M2745 1885 c-5 -2 -50 -9 -100 -14 -186 -21 -331 -41 -367 -51 -45
-13 -94 -67 -106 -117 -12 -48 -40 -213 -48 -279 l-6 -51 53 7 c271 37 525
225 606 447 l23 63 -23 -1 c-12 0 -26 -2 -32 -4z"/>
</g>
</svg>
